<svg xmlns="http://www.w3.org/2000/svg" width="200.378" height="46.424" viewBox="0 0 200.378 46.424">
  <g id="gn-まちやまロゴ" transform="translate(-423.713 -111.064)">
    <path id="パス_1047" data-name="パス 1047" d="M463.755,149.206a97.152,97.152,0,0,0-9.865-5.065c-.053,6.805-3.376,13.242-15.932,13.242-10.446,0-14.244-5.223-14.244-10.658s4.8-10.286,13.981-10.286a46.33,46.33,0,0,1,11.5,1.477v-6.752H434.317v-3.957h14.877v-8.283H434.317v-4.167h14.877v-3.693h4.7v3.693h7.861v4.167H453.89v8.283h7.861v4.168H453.89v7.965a95.693,95.693,0,0,1,11.606,5.171ZM449.194,142.4a36.1,36.1,0,0,0-11.237-1.846c-5.644,0-9.337,2.691-9.337,6.067,0,3.271,2.374,6.594,9.284,6.594,9.549,0,11.29-4.8,11.29-10.6Z" fill="#302e2d"/>
    <path id="パス_1048" data-name="パス 1048" d="M529.32,155.844l-3.693-3.007a13.946,13.946,0,0,0,4.326-9.5c0-2.532-2.637-9.022-12.028-9.022a29.628,29.628,0,0,0-19.15,7.6l-4.326-1.847c1.424-4.431,2.8-12.872,3.534-20.1h-8.7v-4.59h9.126c.052-1.477.105-2.9.105-4.115h4.906c0,1.213-.053,2.637-.159,4.115h14.507v4.59H502.89A116.553,116.553,0,0,1,500.3,135.8a32.092,32.092,0,0,1,18.307-6.173c12.4,0,16.3,8.864,16.3,13.664a18.647,18.647,0,0,1-5.592,12.556" transform="translate(-14.344 -0.044)" fill="#302e2d"/>
    <path id="パス_1049" data-name="パス 1049" d="M596.3,145.164l-3.534-3.323a13.574,13.574,0,0,0,5.329-10.445c0-4.7-3.113-9.549-10.921-9.812v11.183h-4.432V121.53H568.18c.474,10.71.686,26.062.686,36.032h-4.748c0-10.972-.264-25.692-.738-36.032H555.94v-4.641h7.122c-.106-2.269-.317-4.116-.476-5.487h4.854c.159,1.319.317,3.219.475,5.487h14.824V111.4h4.432v5.54c9.6.052,15.774,5.7,15.774,14.613a17.254,17.254,0,0,1-6.648,13.611" transform="translate(-28.927 -0.074)" fill="#302e2d"/>
    <path id="パス_1050" data-name="パス 1050" d="M666.762,149.206a97.149,97.149,0,0,0-9.865-5.065c-.053,6.805-3.376,13.242-15.932,13.242-10.446,0-14.244-5.223-14.244-10.658s4.8-10.286,13.981-10.286a46.33,46.33,0,0,1,11.5,1.477v-6.752H637.324v-3.957H652.2v-8.283H637.324v-4.167H652.2v-3.693h4.7v3.693h7.861v4.167H656.9v8.283h7.861v4.168H656.9v7.965a95.693,95.693,0,0,1,11.606,5.171ZM652.2,142.4a36.1,36.1,0,0,0-11.237-1.846c-5.644,0-9.337,2.691-9.337,6.067,0,3.271,2.374,6.594,9.284,6.594,9.549,0,11.29-4.8,11.29-10.6Z" transform="translate(-44.411)" fill="#302e2d"/>
  </g>
</svg>
