<svg xmlns="http://www.w3.org/2000/svg" width="204.32" height="35.74" viewBox="0 0 204.32 35.74">
  <path
    d="M34.33,10.91A17.87,17.87,0,0,0,5.23,5.23,18.3,18.3,0,0,0,1.4,10.91,17.85,17.85,0,0,0,5.23,30.5a17.87,17.87,0,0,0,29.1-19.59Z"
    fill="#fff"></path>
  <path
    d="M34.33,10.91A17.87,17.87,0,0,0,5.23,5.23,18.3,18.3,0,0,0,1.4,10.91,17.85,17.85,0,0,0,5.23,30.5a17.87,17.87,0,0,0,29.1-19.59ZM14,8.8H12.74a1.92,1.92,0,0,0-1.52.58,4.23,4.23,0,0,0-.51,2.54V24a4.23,4.23,0,0,0,.51,2.54,1.88,1.88,0,0,0,1.52.58H14v1.45H11.72a3.29,3.29,0,0,1-2.53-1c-.6-.63-.9-1.84-.9-3.61V22.52a4.41,4.41,0,0,0-.73-2.66,2.45,2.45,0,0,0-2.12-1V17.21a2.45,2.45,0,0,0,2.12-1,4.41,4.41,0,0,0,.73-2.66V11.92c0-1.74.3-2.94.9-3.59a3.25,3.25,0,0,1,2.53-1H14ZM27.89,24c0,1.77-.3,3-.9,3.61a3.31,3.31,0,0,1-2.54,1H22.19V27.13h1.25A1.9,1.9,0,0,0,25,26.55,4.26,4.26,0,0,0,25.47,24V7.41h2.42Z"
    fill="#be003f"></path>
  <g class="logo__txt">
    <path
      d="M60.15,16.53a7.59,7.59,0,0,1-2.62,2.22,8.07,8.07,0,0,1-3.86.85,9.56,9.56,0,0,1-3.59-.66,8.3,8.3,0,0,1-4.69-4.68,9.29,9.29,0,0,1-.67-3.61A9.5,9.5,0,0,1,45.4,7a8.14,8.14,0,0,1,1.9-2.8,8.71,8.71,0,0,1,2.86-1.82,9.89,9.89,0,0,1,3.61-.64,9.34,9.34,0,0,1,1.75.16,8.52,8.52,0,0,1,1.7.51,6.6,6.6,0,0,1,1.49.83,5,5,0,0,1,1.15,1.14L58,5.83A4.56,4.56,0,0,0,56.23,4.4a5.39,5.39,0,0,0-2.46-.57,6.33,6.33,0,0,0-2.68.54,6.06,6.06,0,0,0-2,1.48A6.6,6.6,0,0,0,47.77,8a7.36,7.36,0,0,0-.46,2.63,8,8,0,0,0,.44,2.69A6.37,6.37,0,0,0,49,15.51,5.64,5.64,0,0,0,51,17a6.54,6.54,0,0,0,2.65.53A5.8,5.8,0,0,0,56.27,17a5,5,0,0,0,1.94-1.68Z"></path>
    <path
      d="M73.37,13.46a6.1,6.1,0,0,1-.47,2.42,5.81,5.81,0,0,1-1.29,1.91,6,6,0,0,1-2,1.25,6.84,6.84,0,0,1-4.84,0,5.63,5.63,0,0,1-2-1.25,6,6,0,0,1-1.28-1.91A6.1,6.1,0,0,1,61,13.46a6,6,0,0,1,.47-2.41,5.8,5.8,0,0,1,1.28-1.89,5.45,5.45,0,0,1,2-1.23,6.73,6.73,0,0,1,4.84,0,5.91,5.91,0,0,1,2,1.23,5.83,5.83,0,0,1,1.29,1.89A6,6,0,0,1,73.37,13.46Zm-2.35,0a4.85,4.85,0,0,0-.25-1.56A3.82,3.82,0,0,0,70,10.6a3.51,3.51,0,0,0-1.19-.9,3.76,3.76,0,0,0-1.62-.33,3.81,3.81,0,0,0-1.63.33,3.51,3.51,0,0,0-1.19.9,3.64,3.64,0,0,0-.73,1.3,4.86,4.86,0,0,0-.26,1.56A4.79,4.79,0,0,0,63.67,15a3.81,3.81,0,0,0,.73,1.32,3.41,3.41,0,0,0,1.19.91,3.82,3.82,0,0,0,1.63.34,3.77,3.77,0,0,0,1.62-.34A3.37,3.37,0,0,0,70,16.34,4.07,4.07,0,0,0,70.77,15,4.66,4.66,0,0,0,71,13.47Z"></path>
    <path
      d="M85,17.37a4.12,4.12,0,0,1-1.76,1.57,5.28,5.28,0,0,1-2.34.54A5.56,5.56,0,0,1,78.49,19a5.38,5.38,0,0,1-1.81-1.28,5.78,5.78,0,0,1-1.15-1.92,7,7,0,0,1-.41-2.35,6.67,6.67,0,0,1,.41-2.34,5.65,5.65,0,0,1,1.17-1.9,5.21,5.21,0,0,1,1.81-1.27,5.67,5.67,0,0,1,2.33-.46,4.87,4.87,0,0,1,2.42.59A5,5,0,0,1,84.89,9.5h0V1H87.2V19.17H85Zm-7.48-3.9a5,5,0,0,0,.2,1.53,4,4,0,0,0,.72,1.32,3.51,3.51,0,0,0,2.8,1.27A3.68,3.68,0,0,0,84,16.35a4.1,4.1,0,0,0,.78-1.3,4.61,4.61,0,0,0,.27-1.56,4.28,4.28,0,0,0-1-2.87,3.86,3.86,0,0,0-1.21-.91,3.77,3.77,0,0,0-1.58-.33,3.81,3.81,0,0,0-1.63.33,3.59,3.59,0,0,0-1.17.91,4,4,0,0,0-.72,1.32,4.68,4.68,0,0,0-.26,1.53Z"></path>
    <path
      d="M101.16,13.39v.38a2.41,2.41,0,0,1,0,.38h-9a3.48,3.48,0,0,0,.33,1.35,3.35,3.35,0,0,0,.8,1.1,4,4,0,0,0,4.57.49,4,4,0,0,0,1.32-1.22l1.58,1.27a5.51,5.51,0,0,1-2.14,1.78,6.9,6.9,0,0,1-5.15.14,5.5,5.5,0,0,1-1.9-1.21A5.68,5.68,0,0,1,90.24,16a6.4,6.4,0,0,1-.45-2.44,6.59,6.59,0,0,1,.44-2.44A5.48,5.48,0,0,1,93.35,8a6,6,0,0,1,2.33-.45A6.1,6.1,0,0,1,98,7.89a4.6,4.6,0,0,1,1.74,1.18,5.22,5.22,0,0,1,1.09,1.86A7.31,7.31,0,0,1,101.16,13.39Zm-2.3-.92a4.18,4.18,0,0,0-.23-1.26A2.76,2.76,0,0,0,97,9.53a3.45,3.45,0,0,0-1.38-.25,3.69,3.69,0,0,0-1.36.25,3.5,3.5,0,0,0-1.87,1.7,3.25,3.25,0,0,0-.35,1.26Z"></path>
    <path
      d="M114.44,9.64H111.8v9.53h-2.26V9.64h-2.26V7.79h2.26V5.42a7.29,7.29,0,0,1,.23-1.86,3.89,3.89,0,0,1,.74-1.48,3.7,3.7,0,0,1,1.32-1,4.89,4.89,0,0,1,2-.36,5.14,5.14,0,0,1,1.41.17L115,2.83a4.54,4.54,0,0,0-.53-.12,3,3,0,0,0-.6,0,2,2,0,0,0-1,.23,1.49,1.49,0,0,0-.61.61,2.47,2.47,0,0,0-.29.88,6.73,6.73,0,0,0-.07,1V7.79h2.64Z"></path>
    <path
      d="M127.44,13.46a6.09,6.09,0,0,1-.46,2.42,5.94,5.94,0,0,1-1.3,1.91,5.63,5.63,0,0,1-2,1.25,6.84,6.84,0,0,1-4.84,0,5.66,5.66,0,0,1-2-1.25,6,6,0,0,1-1.28-1.91,6.1,6.1,0,0,1-.47-2.42,6,6,0,0,1,.47-2.41,5.8,5.8,0,0,1,1.28-1.89,5.61,5.61,0,0,1,2-1.23,6.73,6.73,0,0,1,4.84,0,5.61,5.61,0,0,1,3.3,3.12A6,6,0,0,1,127.44,13.46Zm-2.35,0a4.85,4.85,0,0,0-.25-1.56,4,4,0,0,0-.73-1.3,3.54,3.54,0,0,0-1.2-.9,3.76,3.76,0,0,0-1.62-.33,3.81,3.81,0,0,0-1.63.33,3.51,3.51,0,0,0-1.19.9,3.64,3.64,0,0,0-.73,1.3,4.86,4.86,0,0,0-.26,1.56,4.8,4.8,0,0,0,.26,1.55,3.81,3.81,0,0,0,.73,1.32,3.41,3.41,0,0,0,1.19.91,3.82,3.82,0,0,0,1.63.34,3.77,3.77,0,0,0,1.62-.34,3.45,3.45,0,0,0,1.2-.91,4.17,4.17,0,0,0,.73-1.32,4.78,4.78,0,0,0,.25-1.54Z"></path>
    <path
      d="M129.94,9.07a7.2,7.2,0,0,0-.07-1.28H132c0,.29.06.62.08,1s0,.68,0,.92h.07a4,4,0,0,1,1.41-1.62,3.61,3.61,0,0,1,2.07-.61,3.33,3.33,0,0,1,.89.1l-.1,2.09a4.21,4.21,0,0,0-1-.12,3.24,3.24,0,0,0-1.41.29,2.91,2.91,0,0,0-1,.81,3.44,3.44,0,0,0-.59,1.16,4.94,4.94,0,0,0-.19,1.38v6H130v-9A8.91,8.91,0,0,0,129.94,9.07Z"></path>
    <path
      d="M144.08,15.38a2.72,2.72,0,0,0,.84,1.51,2.25,2.25,0,0,0,1.6.6,2.41,2.41,0,0,0,1.26-.29,2.09,2.09,0,0,0,.78-.78,3.11,3.11,0,0,0,.41-1.15,8.18,8.18,0,0,0,.12-1.4V2.18h2.38V14a10.68,10.68,0,0,1-.19,1.87,5.47,5.47,0,0,1-.72,1.83,4.38,4.38,0,0,1-1.48,1.39,5.55,5.55,0,0,1-5.6-.46A4.63,4.63,0,0,1,141.87,16Z"></path>
    <path
      d="M161.81,11.8A2.23,2.23,0,0,0,161,9.92a3.18,3.18,0,0,0-2-.61,4.51,4.51,0,0,0-1.81.37,4.61,4.61,0,0,0-1.43,1l-1.2-1.45A6,6,0,0,1,156.62,8a7.2,7.2,0,0,1,2.6-.46,5.9,5.9,0,0,1,2.12.35,4,4,0,0,1,1.48,1,3.86,3.86,0,0,1,.86,1.41A5,5,0,0,1,164,12v6.22a6.67,6.67,0,0,0,.13,1h-2a6.85,6.85,0,0,1-.19-1.63h-.07A4.29,4.29,0,0,1,160.26,19a4.69,4.69,0,0,1-2.24.51,5.54,5.54,0,0,1-1.4-.18,4.35,4.35,0,0,1-1.34-.59,3.33,3.33,0,0,1-1-1.08,3.21,3.21,0,0,1-.4-1.66,2.87,2.87,0,0,1,.7-2,4.42,4.42,0,0,1,1.82-1.15,10.6,10.6,0,0,1,2.55-.52q1.41-.12,2.85-.12Zm-.55,1.95a14.8,14.8,0,0,0-1.74.07,8.18,8.18,0,0,0-1.63.28,3.23,3.23,0,0,0-1.21.65,1.5,1.5,0,0,0-.48,1.16,1.65,1.65,0,0,0,.2.84,1.77,1.77,0,0,0,.54.55,2.5,2.5,0,0,0,.74.3,4.78,4.78,0,0,0,.84.08,3.1,3.1,0,0,0,2.44-.95,3.43,3.43,0,0,0,.85-2.39v-.59Z"></path>
    <path
      d="M169.4,24.93h-2.26V7.79h2.21V9.57h.07A4.14,4.14,0,0,1,171,8.07a5,5,0,0,1,2.47-.59,5.58,5.58,0,0,1,2.31.46,5.17,5.17,0,0,1,1.8,1.27,5.67,5.67,0,0,1,1.16,1.91,6.67,6.67,0,0,1,.41,2.34,7,7,0,0,1-.41,2.35,5.62,5.62,0,0,1-1.15,1.92A5.35,5.35,0,0,1,175.84,19a5.87,5.87,0,0,1-2.37.47,5,5,0,0,1-2.3-.53,4.12,4.12,0,0,1-1.7-1.48h-.07Zm7.48-11.47a5.05,5.05,0,0,0-.24-1.54,4,4,0,0,0-.72-1.32,3.29,3.29,0,0,0-1.18-.91,3.9,3.9,0,0,0-1.65-.34,3.7,3.7,0,0,0-1.57.34,3.86,3.86,0,0,0-1.21.91,4.3,4.3,0,0,0-.78,1.32,4.49,4.49,0,0,0,0,3.12,4,4,0,0,0,.78,1.31,3.83,3.83,0,0,0,1.21.9,3.7,3.7,0,0,0,1.57.34,3.77,3.77,0,0,0,1.65-.35,3.46,3.46,0,0,0,1.18-.93,4,4,0,0,0,.72-1.32,4.94,4.94,0,0,0,.24-1.53Z"></path>
    <path
      d="M188.83,11.8a2.24,2.24,0,0,0-.76-1.88,3.18,3.18,0,0,0-2-.61,4.35,4.35,0,0,0-1.81.37,4.61,4.61,0,0,0-1.43,1l-1.2-1.45a6.1,6.1,0,0,1,2-1.24,7.2,7.2,0,0,1,2.6-.46,5.92,5.92,0,0,1,2.13.35,3.86,3.86,0,0,1,2.34,2.36A5.29,5.29,0,0,1,191,12v6.22a6.67,6.67,0,0,0,.13,1h-2a6.85,6.85,0,0,1-.19-1.63h-.07A4.29,4.29,0,0,1,187.29,19a4.76,4.76,0,0,1-2.25.51,5.54,5.54,0,0,1-1.4-.18,4.29,4.29,0,0,1-1.33-.59,3.16,3.16,0,0,1-1.4-2.74,3,3,0,0,1,.7-2,4.42,4.42,0,0,1,1.82-1.15,10.6,10.6,0,0,1,2.55-.52c.94-.08,1.9-.12,2.85-.12Zm-.55,1.95a14.8,14.8,0,0,0-1.74.07,8.18,8.18,0,0,0-1.63.28,3.23,3.23,0,0,0-1.21.65,1.5,1.5,0,0,0-.48,1.16,1.65,1.65,0,0,0,.2.84,1.77,1.77,0,0,0,.54.55,2.46,2.46,0,0,0,.75.3,4.78,4.78,0,0,0,.84.08,3.08,3.08,0,0,0,2.43-.95,3.43,3.43,0,0,0,.85-2.39v-.59Z"></path>
    <path
      d="M196.2,7.79c0,.33.06.67.07,1V9.7h.07a3.21,3.21,0,0,1,.59-.86,4.35,4.35,0,0,1,.85-.69,4.18,4.18,0,0,1,1.06-.47,4.4,4.4,0,0,1,1.2-.17,4.55,4.55,0,0,1,1.89.37,3.85,3.85,0,0,1,2.1,2.46,6.08,6.08,0,0,1,.26,1.8V19.2H202V12.86a8.4,8.4,0,0,0-.11-1.32,3.13,3.13,0,0,0-.39-1.11,2.16,2.16,0,0,0-.8-.76,2.52,2.52,0,0,0-1.29-.29,2.72,2.72,0,0,0-2.2,1,4.11,4.11,0,0,0-.85,2.72v6h-2.26V9.07a7.2,7.2,0,0,0-.07-1.28Z"></path>
    <path
      d="M51.34,28.24c-.27.16-.56.32-.88.48-.84.39-1.66.81-2.46,1.28s-1.24,1-1.24,1.62.62,1,1.85,1a15.09,15.09,0,0,0,2.92-.32v1.29a17.13,17.13,0,0,1-2.86.21c-1.77,0-3.11-.49-3.11-2A3,3,0,0,1,47,29.45c-.41-.77-.84-1.71-1.25-2.66l1.13-.46A20.31,20.31,0,0,0,48,28.8c.73-.42,1.51-.82,1.93-1.05a7.24,7.24,0,0,0,.82-.54Z"></path>
    <path
      d="M61.4,29.53a3.26,3.26,0,0,1,.87,2.14C62.27,33,61.06,34,59.11,34c-1.41,0-2.4-.61-2.4-2.09a5.3,5.3,0,0,1,.06-.9,12.23,12.23,0,0,1-1.71-.3l.07-1.08a7,7,0,0,0,1.75.35c.06-.4.1-.81.15-1.22a11.7,11.7,0,0,1-1.77-.31l.06-1a8.81,8.81,0,0,0,1.83.34c0-.27.06-.52.07-.71a5.34,5.34,0,0,0,0-.8l1.25.08c-.07.32-.11.55-.15.79s0,.38-.1.67a12.78,12.78,0,0,0,1.64-.11v1.07a16.56,16.56,0,0,1-1.73.08c-.06.39-.11.82-.16,1.21h0a11,11,0,0,0,1.79-.1V31c-.5,0-1,.08-1.57.08h-.36v.65c0,.73.45,1.13,1.33,1.13,1.24,0,1.93-.57,1.93-1.3a2.45,2.45,0,0,0-.92-1.73Z"></path>
    <path
      d="M67.16,26.61c-.07.18-.18.63-.22.79a24,24,0,0,0-.43,3.27,5.61,5.61,0,0,0,0,.58c.12-.32.27-.61.39-.9l.56.43a21.4,21.4,0,0,0-.6,2.22,2.81,2.81,0,0,0,0,.41v.37l-1,.07a11.5,11.5,0,0,1-.35-2.92,24.43,24.43,0,0,1,.37-3.52,6.4,6.4,0,0,0,.09-.88ZM69.25,31a3.16,3.16,0,0,0-.11.75c0,.4.34.63,1.24.63a10.58,10.58,0,0,0,2.24-.23v1.2a12.67,12.67,0,0,1-2.3.18c-1.54,0-2.27-.56-2.27-1.46a5.77,5.77,0,0,1,.15-1.17Zm3.11-3.81v1.15a24.36,24.36,0,0,1-3.82,0V27.2a18.76,18.76,0,0,0,3.82,0Z"></path>
    <path
      d="M80.07,29.28c-.39.29-.8.57-1.21.83a18.26,18.26,0,0,0,2.66-.46l.65.71a24.4,24.4,0,0,1-4,.57l-.11.46h4.16v.45a4,4,0,0,1-.74,2.1,1.16,1.16,0,0,1-.87.31,10.14,10.14,0,0,1-1.35,0,2.21,2.21,0,0,0-.34-1c.52.06,1.09.08,1.33.08a.66.66,0,0,0,.39-.09,1.85,1.85,0,0,0,.41-1H77.81l-.11.41-1.07-.15c.12-.38.26-.87.39-1.38-.49.23-1,.45-1.48.65a7.4,7.4,0,0,0-.66-.82,15.78,15.78,0,0,0,2.4-1v-.2h.29c.28-.15.55-.31.81-.47h-3.1v-.9H78v-.73H76v-.87h2v-.93h1.1v.93H81v.46a10.69,10.69,0,0,0,.9-1l.86.48a13.37,13.37,0,0,1-1.59,1.69h2v.9Zm-.36-.9c.29-.24.58-.47.85-.73H79.1v.73Z"></path>
    <path
      d="M91.14,29.49c-.41.35-1.24,1.12-1.45,1.34a1,1,0,0,1,.33.07.93.93,0,0,1,.55.61c.08.24.16.58.24.81a.55.55,0,0,0,.63.41,8.56,8.56,0,0,0,1.75-.15l-.07,1.17a14.56,14.56,0,0,1-1.75.13c-.84,0-1.3-.18-1.52-.77-.1-.26-.2-.67-.26-.9a.6.6,0,0,0-.48-.43.87.87,0,0,0-.57.36A20.13,20.13,0,0,0,86.94,34l-1.06-.74a8.11,8.11,0,0,0,.62-.55c.46-.47,2.28-2.28,3.1-3.14-.63,0-1.7.11-2.21.16a6.32,6.32,0,0,0-.76.11l-.11-1.24h.85c.32,0,2.45-.09,3.19-.19a3.1,3.1,0,0,0,.51-.11l.65.75C91.49,29.2,91.3,29.37,91.14,29.49Zm.27-2.85-.15,1.05c-.93-.08-2.6-.27-3.66-.45l.17-1C88.77,26.39,90.48,26.58,91.41,26.64Z"></path>
    <path d="M97.46,34.1a16.58,16.58,0,0,0-1.93-2l.93-.81a17.17,17.17,0,0,1,2,2Z"></path>
    <path
      d="M112.68,28.24c-.27.16-.55.32-.88.48A25.25,25.25,0,0,0,109.32,30c-.75.49-1.25,1-1.25,1.62s.63,1,1.86,1a15.09,15.09,0,0,0,2.92-.32v1.29a17.25,17.25,0,0,1-2.87.21c-1.77,0-3.11-.49-3.11-2a3,3,0,0,1,1.48-2.35c-.42-.77-.85-1.71-1.26-2.66l1.13-.46a20.31,20.31,0,0,0,1.12,2.47c.73-.42,1.5-.82,1.92-1.05a6.45,6.45,0,0,0,.82-.54Z"></path>
    <path
      d="M122.74,29.53a3.26,3.26,0,0,1,.87,2.14c0,1.34-1.21,2.31-3.16,2.31-1.4,0-2.39-.61-2.39-2.09a6.8,6.8,0,0,1,.06-.9,12.23,12.23,0,0,1-1.71-.3l.06-1.08a7,7,0,0,0,1.76.35,8.64,8.64,0,0,1,.15-1.22,11.7,11.7,0,0,1-1.77-.31l.06-1a8.81,8.81,0,0,0,1.83.34,2.19,2.19,0,0,1,.07-.71,5.34,5.34,0,0,0,0-.8l1.25.08c-.07.32-.12.55-.16.79l-.09.67a12.63,12.63,0,0,0,1.63-.11v1.07a16.88,16.88,0,0,1-1.74.08c0,.39-.11.82-.15,1.21h.06a10.93,10.93,0,0,0,1.79-.1V31c-.5,0-1,.08-1.57.08h-.36v.65c0,.73.45,1.13,1.34,1.13,1.24,0,1.92-.57,1.92-1.3a2.45,2.45,0,0,0-.92-1.73Z"></path>
    <path
      d="M128.5,26.61a5.41,5.41,0,0,0-.21.79,21.22,21.22,0,0,0-.43,3.27,5.61,5.61,0,0,0,0,.58c.13-.32.27-.61.4-.9l.56.43a18.88,18.88,0,0,0-.64,2.19,2.7,2.7,0,0,0-.06.41v.37l-1,.07a11.5,11.5,0,0,1-.35-2.92,24.43,24.43,0,0,1,.37-3.52,6.4,6.4,0,0,0,.09-.88Zm2.09,4.4a3.15,3.15,0,0,0-.1.75c0,.4.34.63,1.24.63a10.42,10.42,0,0,0,2.23-.23v1.2a12.78,12.78,0,0,1-2.31.18c-1.54,0-2.27-.56-2.27-1.46a5.78,5.78,0,0,1,.16-1.17Zm3.12-3.81v1.15a24.49,24.49,0,0,1-3.83,0V27.2a18.86,18.86,0,0,0,3.83,0Z"></path>
    <path
      d="M137.68,28.28a15.12,15.12,0,0,1,3.81-.85,2.6,2.6,0,0,1,2.86,2.3,2.45,2.45,0,0,1,0,.27c0,2-1.92,3.31-5.07,3.47l-.51-1.19c2.41,0,4.3-.75,4.3-2.3a1.46,1.46,0,0,0-1.43-1.49h-.21a13.33,13.33,0,0,0-4.35,1.3l-.51-1.26A10.16,10.16,0,0,0,137.68,28.28Z"></path>
    <path
      d="M152.88,27c-.28.2-.58.44-.79.6-.57.47-1.75,1.38-2.35,1.89s-.46.5,0,.92c.67.57,2.39,1.92,3.27,2.78l-1,1-.78-.82c-.48-.52-1.84-1.68-2.66-2.37s-.81-1.24.08-2c.69-.57,1.92-1.56,2.52-2.15a6.06,6.06,0,0,0,.68-.75Z"></path>
    <path
      d="M163.47,27.3l-.62.41c-.48.33-1.41,1.12-2,1.57a2.9,2.9,0,0,1,.83-.09,2.42,2.42,0,0,1,2.66,2.15.28.28,0,0,1,0,.09c0,1.4-1.07,2.52-3.22,2.52-1.25,0-2.18-.57-2.18-1.46a1.49,1.49,0,0,1,1.6-1.39,1.8,1.8,0,0,1,1.9,1.52,1.29,1.29,0,0,0,.73-1.21c0-.8-.81-1.34-1.85-1.34a4.16,4.16,0,0,0-3.21,1.81l-.81-.84c.63-.51,1.7-1.42,2.23-1.85l1.87-1.55c-.46,0-1.69.06-2.16.1a6,6,0,0,0-.73.07V26.65h.81c.47,0,2.38,0,2.88-.09a3.84,3.84,0,0,0,.68-.09Zm-2,5.61a.88.88,0,0,0-.87-.95c-.33,0-.55.2-.55.42s.38.56.9.56a4.19,4.19,0,0,0,.5,0Z"></path>
    <path
      d="M169.93,32.71a1.46,1.46,0,1,1-1.46-1.46,1.46,1.46,0,0,1,1.46,1.46Zm-.65,0a.81.81,0,1,0-.82.8h0a.8.8,0,0,0,.81-.79Z"></path>
  </g>
</svg>
