<?xml version="1.0" encoding="UTF-8"?><svg id="_レイヤー_2" xmlns="http://www.w3.org/2000/svg" viewBox="0 0 575.72 85.39"><defs><style>.cls-1{fill:#0055a7;}.cls-2{fill:#231815;}</style></defs><g id="_レイヤー_1-2"><g><g><path class="cls-1" d="M82.18,28.4h-6.42v10.44c-5.24-6.42-13.05-10.6-22.12-10.53v28.54h6.42v-21.22c9.1,2.76,15.75,11.22,15.75,21.22h6.38V28.4Z"/><path class="cls-1" d="M0,37.96l3.36,1.18C10.85,17.86,31.06,3.56,53.64,3.56c14.9,0,29.23,6.31,39.3,17.31l2.63-2.4C84.82,6.73,69.54,0,53.64,0,29.55,0,8,15.26,0,37.96Z"/><path class="cls-1" d="M62.66,77.1c-2.78,1.24-5.85,1.91-9.03,1.91-12.22,0-22.16-9.94-22.16-22.16,0-6.53,2.79-12.45,7.34-16.53l-4.26-4.76c-5.86,5.25-9.46,12.87-9.46,21.28,0,15.74,12.8,28.54,28.54,28.54,4.09,0,8.04-.87,11.62-2.46l-2.6-5.83Z"/><path class="cls-1" d="M53.64,22.09v-4.78c-21.8,0-39.54,17.74-39.54,39.54,0,6.67,1.69,13.27,4.9,19.07l4.18-2.31c-2.82-5.1-4.3-10.9-4.3-16.77,0-19.17,15.6-34.77,34.76-34.77Z"/><path class="cls-1" d="M129.63,28.95c-1.72-.33-4.08-.55-6.67-.55h-8.4v28.45h8.4c2.59,0,5.24-.15,6.96-.51,6.1-1.29,10.53-6.51,10.53-13.72s-4.1-12.38-10.81-13.68Zm-2.65,21.37c-.84,.04-2.3,.17-3.18,.17h-2.82v-15.74h2.82c.88,0,2.38,.02,3.21,.1,4.2,.43,7.06,2.81,7.06,7.77s-3.16,7.48-7.08,7.7Z"/><path class="cls-1" d="M158.31,27.4c-8.41,0-15.23,6.82-15.23,15.23s6.81,15.22,15.23,15.22,15.22-6.82,15.22-15.22-6.82-15.23-15.22-15.23Zm0,24.08c-4.89,0-8.86-3.97-8.86-8.86s3.97-8.86,8.86-8.86,8.85,3.97,8.85,8.86-3.96,8.86-8.85,8.86Z"/><polygon class="cls-1" points="109.46 34.66 109.46 28.4 88 28.4 88 56.85 109.46 56.85 109.46 50.59 94.41 50.58 94.41 45.66 108.42 45.66 108.42 39.4 94.41 39.4 94.41 34.66 109.46 34.66"/></g><g><g><path class="cls-2" d="M189.46,53.89c-.05-.26-.31-2.31-.68-3.63h4.09c-.09,.92-.4,2.61-.71,3.63h-2.7Zm5.74,8.98c-1.74-1.27-2.7-2.4-3.2-3.08h3.83v-1.72h-4.07v-2.47h4.49v-1.72h-2.38c.31-1.08,.71-3.24,.75-3.63h1.29v-1.71h-4.16v-2.1h-1.81v2.1h-4.63v1.71h1.71c.4,1.2,.66,3.37,.71,3.63h-2.82v1.72h5.03v2.47h-4.82v1.72h4.47c-1.77,2.61-3.95,4.16-5.13,4.94l1.01,1.72c1.2-.97,2.94-2.45,4.47-4.61v6.54h1.81v-6.63c.82,1.16,1.46,1.86,2.4,2.77l1.04-1.64Zm3.83-12.98c3.41-.26,5.36-.75,7.31-1.5l-1.01-1.81c-3.01,1.25-5.71,1.6-8.18,1.58v8.77c0,.9,0,2.99-.73,5.79-.59,2.18-1.81,3.64-2.4,4.34l1.74,1.25c1.03-1.31,3.27-4.21,3.27-11.35v-1.2h3.06v12.62h1.95v-12.62h2.52v-1.79h-7.52v-4.07Z"/><g><path class="cls-2" d="M227.29,48.99v2.11h-7.8v12.76h9.16v2.13h-20.56v-2.13h9.03l.02-12.76h-7.7v-2.11h17.85Z"/><path class="cls-2" d="M243.45,67.97h-2.28v-7.89c-3.68,2.15-6.56,3.12-8.69,3.75l-.94-2.01c6.95-1.8,12.69-5.47,16.08-9.69h-14.36v-2.01h7.94v-3.37h2.28v3.37h6.81v1.96c-1.31,1.67-3.12,3.87-6.83,6.51v9.37Zm8.74-4.14c-2.61-1.94-4.63-3.1-7.53-4.38l1.33-1.6c1.79,.78,5.35,2.5,7.46,3.99l-1.26,1.99Z"/><path class="cls-2" d="M262.03,54.22c0,1.28-.22,4.58-1.02,7.58-.63,2.43-2.03,4.55-3.85,6.25l-1.6-1.62c.9-.85,2.79-2.67,3.44-5.69,.43-2.06,.75-4.75,.75-6.2v-6.82h2.28v6.51Zm6.49,10.63c4.43-1.12,6.68-4.29,7.7-9.79l2.04,.83c-.66,3.36-1.84,5.84-3.51,7.67-2.88,3.22-6.59,3.66-8.45,3.85v-20.42h2.23v17.85Z"/><path class="cls-2" d="M289.19,46.93l2.2-.22,.51,4.5,8.02-.83,.19,1.99-7.97,.82,.56,5.03,9.4-.97,.19,1.99-9.37,.97,.87,7.67-2.25,.27-.85-7.7-9.64,.99-.15-2.01,9.54-.99-.56-5.01-8.23,.85-.17-1.98,8.19-.85-.49-4.53Zm9.11,2.73c-.56-1.79-1.04-2.78-1.34-3.41l1.63-.41c.75,1.55,1.06,2.32,1.43,3.39l-1.72,.43Zm3.17-.29c-.27-.85-.56-1.57-1.4-3.37l1.67-.46c.68,1.43,1.02,2.13,1.43,3.42l-1.69,.41Z"/><path class="cls-2" d="M324.12,56.08v2.32h-18.8v-2.32h18.8Z"/></g><path class="cls-2" d="M332.39,59.43c-1.1,0-2-.89-2-1.99s.9-2,2-2,2,.89,2,2-.89,1.99-2,1.99Z"/><path class="cls-2" d="M346.53,52.59c-.12-.57-.24-1.06-.7-2.66h8.25c-.16,.85-.4,1.81-.7,2.66h-6.84Zm.75,4.45c.42-.83,.58-1.27,.8-1.93l-1.86-.38c-.47,1.27-1.48,3.36-3.06,4.89l1.53,1.27c.42-.45,.82-.87,1.64-2.14h4.73v2.59h-6.02v1.67h6.02v2.84h-8.3v1.74h17.99v-1.74h-7.73v-2.84h5.97v-1.67h-5.97v-2.59h6.96v-1.71h-6.96v-2.12h-1.95v2.12h-3.78Zm-6.98-8.82v1.72h3.67c.38,.97,.66,2.45,.7,2.66h-3.99v6.7c0,.71,0,1.79-.61,4.52-.33,1.55-.92,2.49-1.29,3.08l1.55,1.38c.33-.49,1.09-1.55,1.62-3.85,.54-2.35,.64-4.32,.64-5.31v-4.79h18.34v-1.72h-5.67c.17-.5,.54-1.53,.8-2.66h3.53v-1.72h-8.63v-1.69h-2.05v1.69h-8.61Z"/><path class="cls-2" d="M371.69,54.03c-.12-.35-.64-1.93-.75-2.26h6.13c-.19,.92-.59,2.02-.68,2.26h-4.7Zm13.21,12.15c-3.76-.99-5.83-1.93-8.49-4.16h8.46v-1.58h-9.9v-1.71h8.44v-1.5h-8.44v-1.65h9.01v-1.55h-5.66c.33-.92,.47-1.41,.73-2.26h5.83v-1.6h-4.14c.61-.94,1.46-2.56,1.64-2.98l-1.9-.64c-.4,.99-.99,2.39-1.72,3.62h-1.67v-3.64h-1.83v3.64h-2.42v-3.64h-1.83v3.64h-1.74c-.49-1.43-.85-2.07-1.67-3.62l-1.91,.64c.56,.98,1.22,2.14,1.58,2.98h-4.07v1.6h5.74c.23,.52,.63,1.7,.77,2.26h-5.53v1.55h8.94v1.65h-8.35v1.5h8.35v1.71h-9.9v1.58h8.49c-3.01,2.51-6.28,3.59-8.44,4.21l1.06,1.69c3.38-1.18,6.09-2.4,8.79-5.05v5.48h1.85v-5.45c2.87,2.63,4.85,3.62,8.79,5.05l1.13-1.76Z"/><path class="cls-2" d="M393.65,66.58c1.67-.45,4.16-1.2,6.86-3.03-1.78-2.05-2.7-4.02-3.24-5.29l1.79-.71c1.2,2.58,2.09,3.81,2.98,4.77,2.31-2.19,3.17-4.46,3.52-5.45h-9.45v-1.76h5.05v-3.67h-5.8v-1.84h5.8v-3.07h1.93v3.07h5.83v1.84h-5.83v3.67h4.59v1.65c-.49,1.43-1.53,4.25-4.28,6.86,1.53,1.22,3.34,2.04,5.83,2.84l-1.15,2c-3.15-1.27-4.85-2.38-6.21-3.58-2.99,2.26-5.84,3.11-7.18,3.48l-1.06-1.79Zm1.24-8.42c-.54,.28-1.15,.61-2.92,1.36v7.1c0,1.44-.7,1.81-1.83,1.81h-2.54l-.28-1.95,2,.03c.31,0,.78,0,.78-.66v-5.62c-1.51,.51-2.31,.75-2.89,.91l-.31-2.04c.99-.24,1.74-.45,3.2-.92v-5.53h-3.01v-1.78h3.01v-4.33h1.88v4.33h2.82v1.78h-2.82v4.87c1.65-.59,2.26-.89,2.78-1.15l.14,1.79Z"/><path class="cls-2" d="M422.43,46.5v4.7h3.74v1.81h-3.74v15.35h-1.84v-15.35h-3.43v-1.81h3.43v-4.7h1.84Zm-11.5,11.5c2.35-2.17,3.5-4.72,4.16-6.42l1.64,.68c-.19,.59-.49,1.58-1.41,3.2v12.9h-1.88v-10.01c-.8,1.01-1.25,1.38-1.72,1.78l-.8-2.14Zm13.92-7.41c-.61-1.39-1.01-2.07-1.76-3.2l1.43-.8c.68,.87,1.18,1.67,1.86,3.13l-1.53,.87Zm-8.61-3.5c-.8,1.85-2.37,4-4.3,5.34l-.91-1.78c1.92-1.34,2.91-3.13,3.45-4.26l1.76,.71Zm16.46,2.18h-5.99v-1.83h5.99v1.83Zm-7.12,6.31c.61,2.77,.92,6.67,.94,8.84l-1.9,.16c-.03-2.79-.23-5.78-.73-8.79l1.69-.21Zm-6.32,0c-.05,1.71-.14,4.8-.75,7.52-.19,.78-.42,1.55-.78,2.28l-1.55-1.25c.99-2.29,1.25-5.71,1.31-8.56h1.77Zm13.8-.07h-1.83v10.7c0,.99,0,2.16-2.02,2.16h-2.92l-.33-1.97,2.56,.02c.51,0,.8-.05,.8-.68v-10.23h-3.01v-1.86h6.75v1.86Z"/><path class="cls-2" d="M443.33,49.16c-1.41,2.71-3.93,6.33-4.8,7.43,1.29-.05,2.12-.09,2.94-.16-.23-.59-.42-.99-.68-1.53l1.46-.63c.66,1.22,1.29,2.78,1.72,4.14l-1.55,.72c-.15-.49-.19-.63-.38-1.15-.5,.04-.98,.09-1.81,.16v10.27h-1.81v-10.16c-2.61,.17-2.89,.19-3.43,.21l-.14-1.76c.52,0,.64,0,1.72-.05,.35-.52,.87-1.27,1.32-1.93-1.34-1.55-2.68-2.63-3.27-3.08l.99-1.53c.35,.26,.45,.33,.75,.59,1.22-1.88,1.86-3.48,2.12-4.16l1.81,.59c-.87,1.93-2.33,4.21-2.71,4.75,.26,.26,.56,.54,1.29,1.39,1.6-2.5,2.11-3.48,2.75-4.77l1.71,.66Zm-8.61,17.12c.94-2.99,1.01-5.24,1.04-6.33l1.65,.29c-.1,2.25-.33,4.49-1.08,6.61l-1.6-.57Zm15.45-15.54c-.65,1.86-1.62,4.04-2.26,5.22,1.03-.05,4.26-.24,5.2-.31-1.01-1.52-1.46-2.07-1.93-2.63l1.51-.96c1.48,1.52,2.89,3.67,3.83,5.48l-1.71,1.06c-.28-.61-.47-.98-.75-1.43-3.18,.4-6.38,.49-9.6,.56l-.05-1.69c.75,0,1.01,0,1.58-.02,.75-1.48,1.64-3.81,2.25-5.74l1.93,.47Zm-8.58,13.66c-.05-1.31-.21-2.89-.47-4.14l1.48-.25c.52,2.18,.56,3.43,.59,4.11l-1.6,.28Zm1.34-12.81c1.79-1.41,3.2-3.03,4.28-5.05l1.72,.7c-1.16,2.19-2.82,4.16-4.63,5.74l-1.36-1.39Zm10.11-5.15c1.02,1.84,2.38,3.46,4.05,4.7l-1.13,1.53c-1.88-1.43-3.43-3.29-4.54-5.41l1.62-.83Zm-4.23,19.47c0,.42,.05,.54,.56,.54h1.46c.4,0,.61-.08,.71-.48,.16-.63,.24-1.52,.26-2.04l1.88,.35c-.33,2.87-.54,3.88-2.07,3.88h-2.98c-.96,0-1.62-.23-1.62-1.34v-5.24h1.81v4.33Zm-6.23,.63c1.01-1.67,1.48-3.57,1.74-5.5l1.62,.38c-.23,2.18-.78,4.49-1.58,5.95l-1.78-.83Zm12.63,.4c-.5-2.35-.99-3.88-1.93-5.9l1.67-.66c.82,1.53,1.74,4.11,2.09,5.92l-1.83,.64Zm-4.28-5.34c-1.13-.94-2.56-1.79-4.3-2.42l.96-1.48c1.69,.64,3.03,1.36,4.4,2.42l-1.06,1.48Z"/><path class="cls-2" d="M463.85,53.11c2.21-1.41,4.23-3.13,5.81-5.22,.75,.87,2.59,2.99,5.95,5.22h-11.76Zm11.85,.07c1.78,1.18,3.12,1.79,4.06,2.19l1.11-1.98c-3.9-1.53-7.29-3.5-10.25-7.17h-1.95c-2.45,3.5-6.38,5.88-10.16,7.17l1.13,1.98c.92-.4,2.4-1.06,4.18-2.26v1.79h11.88v-1.72Zm-14.39,4.37v10.72h1.98v-1.08h12.84v1.08h1.97v-10.72h-16.79Zm14.81,7.88h-12.84v-6.07h12.84v6.07Z"/><path class="cls-2" d="M501.42,50.5h-5.17v-1.64h5.17v1.64Zm-7.03-3.12v7.61h7.05v10.84c0,.54-.4,.56-.73,.56l-2.77-.03,.4,1.98h3.22c1.76,0,1.76-1.58,1.76-2v-18.97h-8.93Zm2.54,13.54v-2.7h2.69v-1.6h-12.79v1.6h2.94v2.7h-3.55v1.58h3.34c-.44,2.05-1.5,3.15-2.96,4.09l1.25,1.39c.78-.55,2.96-2.09,3.57-5.48h3.72v5.5h1.81v-5.5h3.27v-1.58h-3.27Zm4.49-7.41h-5.17v-1.71h5.17v1.71Zm-9.85,7.41v-2.7h3.55v2.7h-3.55Zm-8.47-13.54v20.97h1.88v-13.36h6.96v-7.61h-8.84Zm7.01,3.12h-5.11v-1.64h5.11v1.64Zm0,3.01h-5.11v-1.71h5.11v1.71Z"/><path class="cls-2" d="M510.7,54.64c2.43-1.55,4.56-3.48,6.31-5.78,.75,.94,3.03,3.71,6.44,5.78h-12.75Zm15.38-6.21c-1.15,1.43-2.71,2.89-3.39,3.46-.35-.26-.79-.59-1.6-1.25,.47-.4,1.93-1.72,3.25-3.25l-1.58-.87c-.99,1.17-1.55,1.69-2.92,2.89-.87-.89-1.34-1.59-1.81-2.35h-9.62v1.67h6.49c-.96,1.08-1.86,1.97-2.96,2.84-.56-.57-1.7-1.53-3.34-2.54l-1.3,1.15c1.1,.73,2.17,1.55,3.13,2.47-1.24,.82-2.54,1.5-4.54,2.28l.94,1.77c.75-.33,1.88-.82,3.29-1.72v1.39h2.92v3.03h-6.21v1.76h6.09c-.24,3.1-3.48,4.58-6.77,5.34l.96,1.88c4.16-1.1,7.5-3.45,7.73-7.21h3.88v5.27c0,1.6,1.22,1.6,1.83,1.6h4.82c1.86,0,2.26-.82,2.56-4.47l-1.93-.38c-.16,2.84-.35,3.01-1.36,3.01h-3.29c-.59,0-.68-.11-.68-.61v-4.42h6.56v-1.76h-6.56v-3.03h3.17v-1.48c1.69,.99,2.77,1.48,3.46,1.81l.8-1.81c-.92-.4-2.26-.99-3.95-2.02,.59-.49,2.28-2.07,3.46-3.55l-1.55-.89Zm-7.34,10.98h-3.76v-3.03h3.76v3.03Z"/><path class="cls-2" d="M546.64,56.54c.8,.4,1.81,1.08,2.04,1.24h-3.36c-.07-.4-.16-.98-.31-2.14,.8-.04,1.65-.09,2.45-.18l-.82,1.08Zm-1.95-6.94c1.2,.99,2.14,2.07,2.47,2.45-1.06,1.34-1.34,1.64-1.79,2.11-.07,.03-.44,.03-.52,.03-.4-3.83-.38-6.4-.35-7.71h-1.9c.05,3.78,.26,7.6,.87,11.3h-6.86c-.59-.79-1.41-1.92-2.14-3.85v-1.11h1.83v-1.78h-1.83v-4.56h-1.79v4.56h-2.52v1.78h2.4c-.21,1.49-.89,4.94-2.75,7.88l.99,2.31c.47-.85,1.25-2.23,1.88-5.01v10.39h1.79v-11.47c.4,1.2,.8,1.88,1.08,2.42l.89-1.32v1.41h.96c-.05,3.93-.42,5.67-1.83,7.6l1.36,1.36c1.65-2.11,1.86-3.69,2.12-5.78,1.1,.61,2.14,1.34,3.04,2.23l1.03-1.5c-.71-.59-1.93-1.55-3.92-2.4,.02-.45,.02-.66,.05-1.51h4.54c.38,1.88,.78,3.39,1.46,4.87-2.26,1.64-3.99,2.06-4.96,2.32l.8,1.62c.99-.31,2.89-.89,5.03-2.37,.54,.8,1.86,2.51,3.41,2.51s2.16-1.34,2.8-3.6l-1.53-1.15c-.21,.85-.45,1.6-.63,2.09-.19,.47-.38,.82-.73,.82-.54,0-1.39-1.2-1.81-1.88,1.71-1.62,2.54-2.96,3.01-3.76l-1.65-.75c-.38,.64-.99,1.62-2.28,2.89-.54-1.18-.84-2.33-1.08-3.63h6.37v-1.65h-2.94l.83-1.03c-.64-.5-1.82-1.2-2.07-1.32,.07-.02,.09-.02,.14-.02,.64-.05,1.18-.09,2.45-.26,.14,.56,.21,.8,.28,1.13l1.43-.61c-.28-1.08-.66-2.28-1.24-3.53l-1.34,.55c.19,.33,.24,.42,.5,1.2-.8,.07-1.86,.14-2.78,.19,.7-.78,2.19-2.45,3.95-4.92l-1.29-.7c-.38,.56-.42,.66-1.76,2.39-.26-.28-.64-.68-.96-1.01,.35-.43,1.32-1.72,1.97-2.87l-1.44-.57c-.47,.85-.99,1.67-1.55,2.47-.12-.12-.21-.19-.49-.4l-.97,1.12Zm-4.68,3.53c.16,.37,.26,.57,.52,1.29-.8,.07-1.6,.12-2.4,.14,.96-1.06,2.98-3.57,4.16-5.24l-1.24-.77c-.35,.54-.61,.96-1.78,2.46-.17-.21-.43-.49-1.01-1.08,.82-.92,1.57-1.9,2.23-2.96l-1.43-.57c-.63,1.15-1.62,2.33-1.84,2.59-.23-.16-.28-.21-.59-.45l-.98,1.13c1.17,.99,2.09,1.95,2.65,2.56-.64,.8-1.32,1.6-2,2.4-.12,0-.24,0-.61-.02l.19,1.53c2.47-.19,4.09-.31,5.03-.42,.1,.35,.14,.52,.24,.99l1.46-.52c-.28-1.22-.7-2.42-1.25-3.57l-1.34,.52Z"/><path class="cls-2" d="M569.18,61.27h3.39v1.76h-3.39v-1.76Zm-1.69-4.44h-5.15v6.2h-1.72v1.48h1.72v3.9h1.77v-3.9h8.46v1.48c0,.52-.09,.63-.73,.63l-2.37-.02,.19,1.81h2.92c1.43,0,1.79-.61,1.79-1.69v-2.21h1.37v-1.48h-1.37v-6.2h-5.17v-1.43h6.54v-1.46h-3.6v-1.72h2.3v-1.36h-2.3v-1.53h3.05v-1.46h-3.05v-1.43h-1.79v1.43h-3.95v-1.43h-1.76v1.43h-3.11v1.46h3.11v1.53h-2.42v1.36h2.42v1.72h-3.67v1.46h6.54v1.43Zm0,6.2h-3.38v-1.76h3.38v1.76Zm1.69-4.8h3.39v1.69h-3.39v-1.69Zm-1.69,1.69h-3.38v-1.69h3.38v1.69Zm2.85-9.08h-3.95v-1.53h3.95v1.53Zm0,3.08h-3.95v-1.72h3.95v1.72Zm-8.68,4.38c-1.72-1.88-2.59-3.79-2.89-4.56v-.87h2.45v-1.77h-2.45v-4.68h-1.88v4.68h-3.06v1.77h2.94c-.75,3.66-1.93,5.9-3.39,7.8l.87,2.52c.52-.8,1.74-2.68,2.63-5.76v11h1.88v-11.5c.31,.68,.85,1.74,1.79,3.13l1.1-1.77Z"/></g><g><path class="cls-2" d="M187.31,38.76h-1.9V18.01h19.93v20.75h-1.93v-1.1h-16.1v1.1Zm0-2.87h16.1V19.8h-16.1v16.1Zm14.78-14.36v1.62h-6.02v3.46h5.55v1.55h-5.55v4.21h6.34v1.67h-14.12v-1.67h5.94v-4.21h-5.05v-1.55h5.05v-3.46h-5.48v-1.62h13.32Zm-2.98,10.64c-.38-.8-1.18-2.21-1.79-3.15l1.57-.77c.42,.61,1.34,2,1.86,3.1l-1.64,.82Z"/><path class="cls-2" d="M220.2,35.84c1.48-3.57,2.77-7.73,3.5-12.26l2.12,.38c-.75,3.74-1.97,8.11-3.6,11.89h7.54v1.9h-21.81v-1.9h12.24Zm-.35-18.89v3.5h9.05v1.9h-20.07v-1.9h8.98v-3.5h2.04Zm-5.48,17.51c-.38-4.65-1.64-8.34-2.28-10.11l1.9-.49c1.18,3.05,2.07,7.1,2.42,10.27l-2.05,.33Z"/><path class="cls-2" d="M239.33,24.56v11.84h-4.28v1.88h-1.74v-9.35c-.56,.87-.87,1.18-1.27,1.58l-.85-2.12c.89-1.08,2.75-3.24,3.08-8.74h-2.73v-1.81h8.18v1.81h-3.62c-.09,1.1-.21,2.61-.87,4.91h4.09Zm-1.67,1.69h-2.61v8.41h2.61v-8.41Zm12.83-.63h2.73v1.85h-2.73v11.23h-1.93v-11.23h-3.81v1.36c0,6.18-2.28,8.81-3.19,9.87l-1.69-1.36c.66-.7,1.65-1.79,2.19-3.48,.14-.47,.8-2.56,.8-5.12v-1.27h-2.51v-1.85h2.51v-5.97h-2.14v-1.81h12.15v1.81h-2.37v5.97Zm-1.93-5.97h-3.81v5.97h3.81v-5.97Z"/><path class="cls-2" d="M255.12,36.97c6.74-1.72,7.71-5.1,8.11-6.72h-6.84v-1.83h7.19c.16-1.1,.19-1.88,.21-2.61h1.93c-.05,.8-.07,1.53-.24,2.61h6.6v7.57c0,.47,.05,.63,.59,.63h1.57c.78,0,.85-.66,.89-3.36l1.81,.42c-.07,3.67-.28,4.77-1.95,4.77h-3.08c-1.72,0-1.72-1.27-1.72-1.95v-6.25h-5.05c-.4,1.76-1.46,6.25-9.09,8.62l-.94-1.9Zm14.08-10.83c-1.2,0-1.83-.31-1.83-1.6v-3.81h-3.34c-.42,1.95-1.5,4.75-7.21,6.37l-.68-1.81c4.58-.89,5.62-3.15,6.06-4.56h-4.44v2.89h-1.93v-4.65h9.26v-2.02h1.93v2.02h9.31v4.23h-.87c-.16,2.09-.54,2.94-1.9,2.94h-4.35Zm5.26-3.22v-2.19h-5.38v3.13c0,.33,0,.59,.63,.59h3.13c.78,0,.8-.52,.89-1.71l.73,.19Z"/><path class="cls-2" d="M288.93,17.8v7.61h-6.96v13.32h-1.88V17.8h8.84Zm-1.83,1.48h-5.1v1.67h5.1v-1.67Zm0,2.96h-5.1v1.69h5.1v-1.69Zm10.08,9.09v1.58h-3.27v5.5h-1.81v-5.5h-3.71c-.59,3.17-2.49,4.7-3.57,5.45l-1.25-1.39c1.32-.82,2.47-1.88,2.96-4.07h-3.34v-1.58h3.53c.02-.21,.02-.33,.02-.52v-2.19h-2.94v-1.6h12.78v1.6h-2.68v2.7h3.27Zm-5.08,0v-2.7h-3.55v2.21c0,.21,0,.33-.02,.49h3.57Zm8.2-13.54v18.94c0,.4,0,2-1.74,2h-3.24l-.4-1.97,2.8,.02c.33,0,.73,0,.73-.54v-10.83h-7.05v-7.61h8.91Zm-1.9,1.48h-5.17v1.67h5.17v-1.67Zm0,2.96h-5.17v1.69h5.17v-1.69Z"/><path class="cls-2" d="M324.61,19.75c-1.2,1.5-2.91,3.08-3.45,3.55,1.74,1.06,3.12,1.67,3.97,2.02l-.82,1.81c-1.93-.89-2.84-1.43-3.45-1.81v1.48h-3.17v3.03h6.58v1.74h-6.58v4.44c0,.49,.09,.61,.68,.61h3.29c1.01,0,1.2-.16,1.36-3.01l1.93,.38c-.31,3.64-.73,4.46-2.56,4.46h-4.82c-.61,0-1.83,0-1.83-1.6v-5.29h-3.85c-.23,3.67-3.38,6.09-7.76,7.24l-.96-1.88c3.34-.75,6.56-2.26,6.77-5.36h-6.11v-1.74h6.23v-3.03h-2.91v-1.36c-1.46,.92-2.54,1.38-3.29,1.72l-.94-1.79c2.07-.8,3.34-1.48,4.53-2.26-.61-.59-1.57-1.46-3.12-2.49l1.29-1.15c1.72,1.06,2.84,2.04,3.34,2.54,1.22-.94,2.19-1.97,2.96-2.84h-6.49v-1.67h9.61c.47,.73,.94,1.46,1.81,2.35,1.36-1.2,1.93-1.72,2.91-2.89l1.57,.87c-1.43,1.67-3.03,3.08-3.24,3.24,.82,.68,1.29,1.03,1.62,1.27,.61-.54,2.19-2.02,3.36-3.48l1.55,.89Zm-4.18,5.31c-3.41-2.05-5.71-4.89-6.44-5.78-1.74,2.3-3.88,4.23-6.3,5.78h12.74Zm-4.7,1.74h-3.76v3.03h3.76v-3.03Z"/><path class="cls-2" d="M327.15,36.9c1.88-2.26,3.29-5.01,4.49-7.73l1.57,1.2c-.96,2.26-2.94,6.09-4.77,8.34l-1.29-1.81Zm3.9-9.42c-1.13-1.03-2.14-1.71-3.85-2.49l.94-1.65c1.5,.54,2.99,1.48,4.11,2.42l-1.2,1.71Zm1.1-6.2c-1.15-1.11-2.99-2.16-3.99-2.58l1.06-1.6c1.13,.47,2.68,1.27,4.16,2.44l-1.22,1.74Zm12.29,9.33c2,2.37,3.24,4.3,4.77,7.4l-1.81,.96c-.28-.66-.49-1.15-.96-2-1.1,.19-5.66,.94-13.02,1.08l-.31-1.88h1.76c1.41-2.49,2.94-5.92,3.38-7.64h-4.84v-1.81h6.84v-4.42h-5.88v-1.81h5.88v-3.57h1.97v3.57h6.13v1.81h-6.13v4.42h6.98v1.81h-8.74c-.94,2.58-2.63,6.09-3.45,7.57,2.26-.09,5.94-.26,8.55-.63,0-.02-1.41-2.35-2.75-3.88l1.62-.99Z"/><path class="cls-2" d="M362.94,17v2.85c0,3.1,.85,6.88,2.3,9.66,1.5,2.87,3.97,5.38,7.87,7.35l-1.39,1.88c-6.65-3.6-8.84-8.84-9.82-13.18-1.34,6.58-5.15,10.72-9.99,13.09l-1.34-1.81c4.3-2.11,7-4.89,8.37-8.13,1.62-3.88,1.88-8.13,1.88-8.88v-2.82h2.12Z"/></g></g></g></g></svg>