<svg xmlns="http://www.w3.org/2000/svg" width="185" height="30" fill="none" aria-label="STARTUP-DB" role="img"><g clip-path="url(#sdb_logo_large_primary_color_svg__a)"><path fill="#384043" d="M135.93 0v30h-.9V0z"></path><path fill="#0099AD" d="M126.128 1.246v27.508c0 .688-.558 1.246-1.245 1.246h-47.6l2.492-2.491h43.862V2.49h-18.841L107.288 0h17.595c.687 0 1.245.558 1.245 1.246M2.49 27.509V2.49h98.784L103.765 0H1.245C.559 0 0 .558 0 1.246v27.508C0 29.442.558 30 1.246 30h72.517l2.49-2.491zM56.383 10.37v1.938h7.576V10.37zm2.655 9.393h2.27v-6.959h-2.27zM81.91 16.22v-5.852h-2.269v9.393h2.27V16.22zm4.571-4.318a2.4 2.4 0 0 0-.783-.89 3.4 3.4 0 0 0-1.167-.49 6.5 6.5 0 0 0-1.44-.152h-.684v1.831h.498q.305 0 .59.04t.51.16q.226.12.358.33.132.213.133.545 0 .33-.133.55a1 1 0 0 1-.365.352q-.232.131-.525.185a3.4 3.4 0 0 1-.61.052h-.458v1.805h.63q.73 0 1.407-.159t1.195-.504.823-.91q.305-.562.305-1.385c0-.549-.096-.993-.285-1.36zm19.209.973a3.8 3.8 0 0 0-1.187-1.4 4.8 4.8 0 0 0-1.677-.747 8.2 8.2 0 0 0-1.91-.226h-.666v1.884h.614q.567 0 1.102.13t.954.431q.419.304.671.813.252.51.251 1.284c0 .516-.083.933-.251 1.278q-.252.517-.671.825a2.7 2.7 0 0 1-.968.445 4.7 4.7 0 0 1-1.142.136h-.563v1.91h.768q.941 0 1.857-.265a4.9 4.9 0 0 0 1.645-.827q.73-.56 1.175-1.432.447-.87.446-2.07 0-1.29-.452-2.168zm-5.921-.49V10.5h-2.155v9.134h2.155zm12.558 3.38v-5.264h-2.129v9.134h2.129v-3.871zm4.846.4a2.08 2.08 0 0 0-.995-1.078 2.5 2.5 0 0 0-.729-.239v-.026a2.3 2.3 0 0 0 1.084-.715q.413-.498.413-1.258 0-.697-.283-1.149-.285-.451-.736-.715t-1.007-.374a5.6 5.6 0 0 0-1.083-.11h-1.027v1.754h.601q.697 0 1.052.213.353.213.354.678 0 .49-.342.742-.343.251-.961.251h-.704v1.626h.743q.71 0 1.136.22.426.219.426.787a.97.97 0 0 1-.142.547.97.97 0 0 1-.369.329 1.7 1.7 0 0 1-.502.162q-.278.045-.535.044h-.756v1.78h1.027q.658 0 1.284-.135a3.4 3.4 0 0 0 1.117-.445q.49-.31.787-.82.297-.508.298-1.257 0-.451-.148-.812zm-67.058-.421q.915-.278 1.434-.928t.518-1.605q0-.81-.306-1.353a2.5 2.5 0 0 0-.815-.876 3.4 3.4 0 0 0-1.155-.47q-.645-.14-1.32-.14h-.975v1.83h.807q.253.001.526.04.273.04.493.154a1 1 0 0 1 .361.319q.14.205.14.538 0 .358-.152.584a1 1 0 0 1-.393.345q-.24.12-.534.167-.293.045-.573.046h-.675v1.645h.382l2.04 3.727h2.653l-2.454-4.02zm-3.117-5.374h-2.11v9.393h2.11m-33.38-7.602c.18.084.334.188.474.306l1.465-1.465a4.2 4.2 0 0 0-.88-.516l-1.514 1.513q.223.055.453.162zm1.16 2.686a3.7 3.7 0 0 0-.942-.51 33 33 0 0 0-.994-.352q-.332-.107-.597-.205a2.7 2.7 0 0 1-.457-.219.9.9 0 0 1-.292-.277.74.74 0 0 1-.1-.398q0-.28.126-.458.126-.18.312-.291.186-.114.418-.153c.087-.015.175-.017.262-.023l1.659-1.659a4.8 4.8 0 0 0-1.423-.23c-.466 0-.88.056-1.314.167a3.6 3.6 0 0 0-1.167.524 2.75 2.75 0 0 0-.836.916q-.319.557-.319 1.34 0 .635.207 1.08.205.445.544.757.338.311.77.51.43.2.881.345.465.147.83.272t.61.279q.246.152.378.337a.76.76 0 0 1 .133.452q0 .278-.107.478a.85.85 0 0 1-.285.317q-.18.12-.418.173a2.2 2.2 0 0 1-.49.053q-.558 0-1.121-.286a2.7 2.7 0 0 1-.91-.71L8.65 18.588q.625.65 1.567 1.002a5.5 5.5 0 0 0 1.95.351q.69 0 1.34-.185a3.4 3.4 0 0 0 1.154-.57 2.8 2.8 0 0 0 .803-.976q.3-.59.3-1.4 0-.703-.28-1.174a2.7 2.7 0 0 0-.703-.79zm20.07 1.256.395-1.091-.404 1.091zm.123-5.732-3.94 9.395h2.468l.689-1.844h.003l.657-1.817h-.01l.404-1.092.563-1.555v-3.085h-.834zm6.104 9.393-3.9-9.394H36.3v3.119l2.28 6.275zM70.98 17.69a1.43 1.43 0 0 1-.544-.431 1.9 1.9 0 0 1-.305-.617 2.6 2.6 0 0 1-.099-.73v-5.67h-2.257v5.856q0 .85.28 1.547.279.698.796 1.195.52.497 1.261.777.653.242 1.445.27v-2.058a1.8 1.8 0 0 1-.575-.137zm2.583-7.45v5.67q0 .385-.093.73-.093.346-.305.617a1.5 1.5 0 0 1-.552.432c-.16.075-.353.114-.561.135v2.058a4.6 4.6 0 0 0 1.398-.268q.75-.278 1.281-.777a3.4 3.4 0 0 0 .817-1.195q.286-.696.286-1.547v-5.857h-2.271zm-53.923.131v1.938h7.576V10.37zm2.653 9.393h2.27v-6.959h-2.27zM151.003 3.45c-3.038 0-5.5 2.426-5.5 5.42v8.335H158.9c2.645 0 4.788-2.112 4.788-4.718V3.45z"></path><path fill="#384043" d="M155.218 24.918a.2.2 0 0 0-.148-.048 3 3 0 0 1-.254.012c-.193 0-.329-.037-.392-.108q-.1-.11-.1-.38v-2.615h.765a.19.19 0 0 0 .191-.188v-.74a.19.19 0 0 0-.191-.188h-.765v-1.09a.19.19 0 0 0-.191-.188h-1.127a.19.19 0 0 0-.191.188v1.09h-.58a.19.19 0 0 0-.191.188v.74a.19.19 0 0 0 .191.188h.58V24.6c.02 1.025.532 1.525 1.561 1.525.258 0 .515-.033.762-.098a.19.19 0 0 0 .142-.181v-.787a.19.19 0 0 0-.063-.14zM160.842 25.793c-.1-.242-.171-.66-.174-1.085v-2.254c0-.604-.193-1.06-.591-1.395-.39-.328-.922-.495-1.581-.495a3 3 0 0 0-1.181.222q-.53.226-.82.62a1.43 1.43 0 0 0-.284.706.19.19 0 0 0 .048.146c.037.04.088.064.142.064h1.13a.19.19 0 0 0 .189-.16.5.5 0 0 1 .176-.314q.189-.156.526-.157.38 0 .555.199.175.202.175.544v.316h-.599c-.791.003-1.406.157-1.827.456-.433.307-.643.736-.643 1.31 0 .466.173.844.527 1.15.347.303.791.456 1.318.456.531 0 .958-.167 1.3-.508.022.108.071.235.106.32.03.07.099.117.178.117h1.15a.19.19 0 0 0 .177-.261zm-2.052-.962a1.2 1.2 0 0 1-.552.131c-.2 0-.361-.052-.473-.155a.5.5 0 0 1-.17-.389l.005-.08c.043-.449.405-.677 1.078-.677h.476v.833a.9.9 0 0 1-.364.337M164.584 20.598a1.6 1.6 0 0 0-.336-.034q-.708.001-1.135.61l-.022-.337a.19.19 0 0 0-.191-.177h-1.017a.19.19 0 0 0-.191.188v5.016a.19.19 0 0 0 .191.188h1.087a.19.19 0 0 0 .191-.188v-3.347c.16-.333.487-.494.999-.494q.155 0 .348.02a.2.2 0 0 0 .147-.047.2.2 0 0 0 .064-.138l.016-1.072a.19.19 0 0 0-.151-.186zM168.5 24.918a.2.2 0 0 0-.148-.048 3 3 0 0 1-.255.012c-.193 0-.328-.037-.391-.108q-.1-.11-.101-.38v-2.615h.765a.19.19 0 0 0 .191-.188v-.74a.19.19 0 0 0-.191-.188h-.765v-1.09a.19.19 0 0 0-.191-.188h-1.127a.19.19 0 0 0-.191.188v1.09h-.499a.19.19 0 0 0-.192.188v.74a.19.19 0 0 0 .192.188h.499V24.6c.02 1.025.532 1.525 1.562 1.525a3 3 0 0 0 .761-.098.19.19 0 0 0 .142-.181v-.787a.19.19 0 0 0-.063-.14zM173.949 20.66h-1.131a.19.19 0 0 0-.191.188v3.6c-.173.306-.478.456-.936.456-.472 0-.702-.25-.702-.765v-3.291a.19.19 0 0 0-.191-.188h-1.127a.19.19 0 0 0-.191.188v3.336c.006.627.165 1.113.469 1.441.31.335.746.497 1.332.497.59 0 1.051-.182 1.403-.554l.02.31a.19.19 0 0 0 .191.176h1.053a.19.19 0 0 0 .191-.188v-5.018a.19.19 0 0 0-.191-.188zM179.422 21.295c-.374-.492-.883-.73-1.557-.73-.53 0-.956.175-1.298.536l-.026-.27a.19.19 0 0 0-.191-.171h-1.038a.19.19 0 0 0-.191.188v6.901a.19.19 0 0 0 .191.188h1.127a.19.19 0 0 0 .191-.188V25.58c.327.32.736.474 1.243.474.65 0 1.153-.244 1.535-.743.375-.489.565-1.147.565-1.955v-.073c0-.84-.185-1.51-.552-1.99zm-.909 1.962c0 .392 0 1.58-.961 1.58-.421 0-.706-.155-.872-.476v-2.106c.158-.311.441-.462.861-.462.316 0 .551.122.717.371.168.253.253.622.253 1.093zM183.839 23.008a6 6 0 0 0-.905-.238c-.351-.07-.593-.148-.738-.24q-.201-.129-.201-.335 0-.223.179-.37.184-.148.524-.15.398 0 .58.183a.6.6 0 0 1 .174.348.194.194 0 0 0 .191.163h1.143a.2.2 0 0 0 .142-.061.19.19 0 0 0 .05-.145c-.038-.45-.242-.813-.621-1.105-.413-.32-.97-.482-1.654-.482-.643 0-1.172.162-1.571.48-.409.325-.607.72-.607 1.207 0 .834.635 1.37 1.942 1.642.379.077.646.162.816.259.157.09.234.208.234.362q0 .224-.19.36c-.132.098-.323.144-.589.144q-.42 0-.669-.188a.64.64 0 0 1-.249-.424.19.19 0 0 0-.192-.159h-1.071a.195.195 0 0 0-.193.21c.028.27.125.516.298.754q.304.42.835.663c.352.158.759.24 1.212.24.668 0 1.221-.152 1.645-.453.435-.308.646-.703.646-1.202 0-.69-.39-1.181-1.161-1.46zM150.793 22.565c-.397-.387-1.037-.715-1.902-.976-.461-.138-.814-.29-1.05-.448-.228-.153-.339-.336-.339-.56 0-.242.094-.431.288-.58.196-.149.477-.225.834-.225.358 0 .659.09.861.269a.9.9 0 0 1 .296.624.19.19 0 0 0 .188.173h1.236a.19.19 0 0 0 .188-.2 2.13 2.13 0 0 0-.344-1.058 2.3 2.3 0 0 0-.977-.823 3.4 3.4 0 0 0-1.425-.29c-.525 0-1.006.09-1.429.267-.425.177-.757.428-.985.746a1.84 1.84 0 0 0-.345 1.091c0 .79.418 1.401 1.278 1.865a8 8 0 0 0 1.255.506c.524.17.876.325 1.076.476.191.145.284.347.284.62a.66.66 0 0 1-.283.573q-.29.21-.814.21c-.881 0-1.352-.35-1.399-1.04a.19.19 0 0 0-.188-.176h-1.241a.2.2 0 0 0-.138.058.2.2 0 0 0-.051.14c.024.423.148.802.37 1.129q.375.552 1.084.868c.469.208.995.314 1.565.314.822 0 1.485-.186 1.973-.551.5-.375.742-.878.742-1.536 0-.592-.197-1.071-.606-1.469z"></path><path fill="#fff" d="M156.67 12.42c-.052-.734-.306-1.324-.757-1.752-.451-.43-1.04-.65-1.753-.65-.501 0-.946.113-1.325.333-.38.222-.676.54-.878.944a3.05 3.05 0 0 0-.303 1.381v.062c0 .823.229 1.484.684 1.965s1.072.726 1.832.726 1.376-.245 1.83-.729c.451-.482.681-1.13.681-1.927l-.009-.356zm-1.749 1.45c-.182.244-.428.363-.751.363-.324 0-.581-.12-.76-.367-.179-.248-.27-.615-.27-1.091 0-.543.088-.931.27-1.187.179-.25.424-.372.75-.372.327 0 .579.122.761.375.181.253.274.618.274 1.084 0 .554-.089.946-.274 1.194M151.27 8.909c0 .05-.023.098-.063.132a.18.18 0 0 1-.142.042 2 2 0 0 0-.268-.016c-.503 0-.737.216-.737.679v.365h.852c.1 0 .182.08.182.179v.741a.18.18 0 0 1-.182.18h-.852v3.945a.18.18 0 0 1-.182.18h-1.127a.18.18 0 0 1-.182-.18V11.21h-.594a.18.18 0 0 1-.182-.179v-.741a.18.18 0 0 1 .182-.179h.594v-.39c0-.586.174-1.033.518-1.358.342-.325.828-.489 1.44-.489q.255 0 .609.073a.18.18 0 0 1 .145.177l-.011.783zM160.728 11.298a.183.183 0 0 1-.202.176 3 3 0 0 0-.35-.02c-.506 0-.829.16-.987.49v3.214a.18.18 0 0 1-.181.179h-1.123a.18.18 0 0 1-.182-.179v-4.865a.18.18 0 0 1 .182-.179h1.053c.096 0 .176.074.18.168l.022.344q.423-.604 1.121-.606.175 0 .336.036a.18.18 0 0 1 .142.177l-.016 1.068z"></path></g><defs><clipPath id="sdb_logo_large_primary_color_svg__a"><path fill="#fff" d="M0 0h185v30H0z"></path></clipPath></defs></svg>